<?xml version="1.0" encoding="UTF-8" standalone="no"?>
<svg width="686px" height="91px" viewBox="0 0 686 91" version="1.1" xmlns="http://www.w3.org/2000/svg" xmlns:xlink="http://www.w3.org/1999/xlink">
    <!-- Generator: Sketch 40.1 (33804) - http://www.bohemiancoding.com/sketch -->
    <title>blockcerts</title>
    <desc>Created with Sketch.</desc>
    <defs></defs>
    <g id="Page-1" stroke="none" stroke-width="1" fill="none" fill-rule="evenodd">
        <g id="Desktop-HD" transform="translate(-379.000000, -457.000000)">
            <g id="blockcerts" transform="translate(379.000000, 440.000000)">
                <text id="BLOCKCERTS" font-family="OpenSans-Semibold, Open Sans" font-size="100" font-weight="500" letter-spacing="-3" fill="#FFFFFF">
                    <tspan x="110.09375" y="107">BLOCK</tspan>
                    <tspan x="419.3125" y="107" font-family="OpenSans-Light, Open Sans" font-weight="300">CERT</tspan>
                    <tspan x="636.414062" y="107" font-family="OpenSans-Light, Open Sans" font-weight="300">S</tspan>
                </text>
                <rect id="Rectangle" fill="#2AB27B" transform="translate(73.000000, 102.000000) rotate(90.000000) translate(-73.000000, -102.000000) " x="68" y="88" width="10" height="28" rx="5"></rect>
                <rect id="Rectangle" fill="#2AB27B" transform="translate(33.500000, 82.000000) rotate(90.000000) translate(-33.500000, -82.000000) " x="28.5" y="48.5" width="10" height="67" rx="5"></rect>
                <rect id="Rectangle" fill="#2AB27B" transform="translate(24.500000, 22.000000) rotate(90.000000) translate(-24.500000, -22.000000) " x="19.5" y="-2.5" width="10" height="49" rx="5"></rect>
                <rect id="Rectangle" fill="#2AB27B" transform="translate(82.000000, 82.000000) rotate(90.000000) translate(-82.000000, -82.000000) " x="77" y="77" width="10" height="10" rx="5"></rect>
                <rect id="Rectangle" fill="#2AB27B" transform="translate(82.000000, 42.000000) rotate(90.000000) translate(-82.000000, -42.000000) " x="77" y="37" width="10" height="10" rx="5"></rect>
                <rect id="Rectangle" fill="#2AB27B" transform="translate(5.000000, 42.000000) rotate(90.000000) translate(-5.000000, -42.000000) " x="0" y="37" width="10" height="10" rx="5"></rect>
                <rect id="Rectangle" fill="#2AB27B" transform="translate(14.000000, 62.000000) rotate(90.000000) translate(-14.000000, -62.000000) " x="9" y="48" width="10" height="28" rx="5"></rect>
                <rect id="Rectangle" fill="#2AB27B" transform="translate(73.000000, 22.000000) rotate(90.000000) translate(-73.000000, -22.000000) " x="68" y="8" width="10" height="28" rx="5"></rect>
                <rect id="Rectangle" fill="#2AB27B" transform="translate(62.500000, 62.000000) rotate(90.000000) translate(-62.500000, -62.000000) " x="57.5" y="37.5" width="10" height="49" rx="5"></rect>
                <rect id="Rectangle" fill="#2AB27B" transform="translate(24.500000, 102.000000) rotate(90.000000) translate(-24.500000, -102.000000) " x="19.5" y="77.5" width="10" height="49" rx="5"></rect>
                <rect id="Rectangle" fill="#2AB27B" transform="translate(43.500000, 42.000000) rotate(90.000000) translate(-43.500000, -42.000000) " x="38.5" y="18.5" width="10" height="47" rx="5"></rect>
            </g>
        </g>
    </g>
</svg>