<?xml version="1.0" encoding="utf-8"?>
<!-- Generator: Adobe Illustrator 17.1.0, SVG Export Plug-In . SVG Version: 6.00 Build 0)  -->
<!DOCTYPE svg PUBLIC "-//W3C//DTD SVG 1.1//EN" "http://www.w3.org/Graphics/SVG/1.1/DTD/svg11.dtd">
<svg version="1.1" xmlns="http://www.w3.org/2000/svg" xmlns:xlink="http://www.w3.org/1999/xlink" x="0px" y="0px"
	 viewBox="0 0 129.5 70.6" enable-background="new 0 0 129.5 70.6" xml:space="preserve">
<g id="BG">
</g>
<g id="Mark">
</g>
<g id="Layer_4">
	<g>
		<path fill="#FFFFFF" d="M56.8,0h3.3v13H68v2.8H56.8V0z"/>
		<path fill="#FFFFFF" d="M81.9,2.8h-8.4v3.4h7.7v2.7h-7.7V13h8.8v2.8h-12V0h11.6V2.8z"/>
		<path fill="#FFFFFF" d="M89.4,0h3.7l5.6,15.8h-3.6l-1-3.3h-5.8l-1.1,3.3h-3.5L89.4,0z M89.2,9.9h4.1l-2-6.2L89.2,9.9z"/>
		<path fill="#FFFFFF" d="M110.9,0.4c0.6,0.3,1.1,0.6,1.5,1.1c0.3,0.4,0.6,0.8,0.8,1.3c0.2,0.5,0.3,1,0.3,1.7c0,0.8-0.2,1.5-0.6,2.2
			c-0.4,0.7-1,1.2-1.9,1.5c0.7,0.3,1.2,0.7,1.6,1.3c0.3,0.5,0.5,1.4,0.5,2.5v1.1c0,0.7,0,1.2,0.1,1.5c0.1,0.4,0.3,0.7,0.6,0.9v0.4
			h-3.7c-0.1-0.4-0.2-0.6-0.2-0.8c-0.1-0.4-0.1-0.9-0.1-1.4l0-1.5c0-1-0.2-1.7-0.5-2c-0.3-0.3-1-0.5-1.9-0.5h-3.2v6.2h-3.2V0h7.6
			C109.5,0,110.4,0.2,110.9,0.4z M104.1,2.7V7h3.6c0.7,0,1.2-0.1,1.6-0.3c0.6-0.3,0.9-0.9,0.9-1.8c0-1-0.3-1.6-0.9-1.9
			c-0.3-0.2-0.8-0.3-1.5-0.3H104.1z"/>
		<path fill="#FFFFFF" d="M116.6,0h3.5l6.3,11V0h3.1v15.8h-3.3l-6.4-11.2v11.2h-3.1V0z"/>
	</g>
	<g>
		<path fill="#FFFFFF" d="M60.1,34h-3.3V18.2h3.3V34z"/>
		<path fill="#FFFFFF" d="M63.1,18.2h3.5l6.3,11.1V18.2H76V34h-3.3l-6.5-11.3V34h-3.1V18.2z"/>
		<path fill="#FFFFFF" d="M89.8,23.1c-0.3-1.1-0.9-1.8-1.8-2.3c-0.5-0.2-1.2-0.4-1.8-0.4c-1.3,0-2.3,0.5-3.1,1.4s-1.2,2.4-1.2,4.3
			c0,1.9,0.4,3.3,1.3,4.1c0.9,0.8,1.9,1.2,3,1.2c1.1,0,2-0.3,2.7-1c0.7-0.6,1.1-1.5,1.3-2.5h-3.7v-2.6h6.6V34h-2.2l-0.3-2
			c-0.6,0.8-1.2,1.3-1.7,1.6c-0.9,0.5-2,0.8-3.2,0.8c-2.1,0-3.8-0.7-5.2-2.2c-1.4-1.5-2.1-3.5-2.1-6c0-2.6,0.7-4.6,2.1-6.2
			c1.4-1.5,3.3-2.3,5.6-2.3c2,0,3.6,0.5,4.9,1.5s1.9,2.3,2.1,3.8H89.8z"/>
	</g>
	<g>
		<path fill="#FFFFFF" d="M67.3,36.3h4.8v15.8H69V41.5c0-0.3,0-0.7,0-1.3c0-0.6,0-1,0-1.3l-3,13.3h-3.2l-3-13.3c0,0.3,0,0.7,0,1.3
			c0,0.6,0,1,0,1.3v10.7h-3.1V36.3h4.8l2.9,12.5L67.3,36.3z"/>
		<path fill="#FFFFFF" d="M79.7,36.3h3.7L89,52.2h-3.6l-1-3.3h-5.8l-1.1,3.3H74L79.7,36.3z M79.5,46.2h4.1l-2-6.2L79.5,46.2z"/>
	</g>
	<g>
		<path fill="#FFFFFF" d="M59,56.5c1.3-1.3,2.9-2,4.9-2c2.6,0,4.6,0.9,5.8,2.6c0.7,1,1,2,1.1,3h-3.3c-0.2-0.8-0.5-1.3-0.8-1.7
			c-0.6-0.7-1.5-1-2.6-1c-1.2,0-2.1,0.5-2.8,1.5c-0.7,1-1,2.3-1,4.1c0,1.8,0.4,3.1,1.1,4c0.7,0.9,1.6,1.3,2.7,1.3
			c1.1,0,2-0.4,2.6-1.1c0.3-0.4,0.6-1,0.8-1.8h3.3c-0.3,1.7-1,3.1-2.2,4.2c-1.2,1.1-2.7,1.6-4.5,1.6c-2.3,0-4-0.7-5.3-2.2
			c-1.3-1.5-1.9-3.5-1.9-6C56.8,60.1,57.5,58,59,56.5z"/>
		<path fill="#FFFFFF" d="M73.3,70.6V54.8h3.3v6h6.2v-6h3.3v15.8h-3.3v-7.1h-6.2v7.1H73.3z"/>
		<path fill="#FFFFFF" d="M92.3,70.6H89V54.8h3.3V70.6z"/>
		<path fill="#FFFFFF" d="M95.3,54.8h3.5l6.3,11v-11h3.1v15.8h-3.3l-6.4-11.2v11.2h-3.1V54.8z"/>
		<path fill="#FFFFFF" d="M123,57.6h-8.4V61h7.7v2.8h-7.7v4.1h8.8v2.8h-12V54.8H123V57.6z"/>
	</g>
	<rect x="36.3" fill="#FFFFFF" width="15.8" height="15.8"/>
	<rect x="36.3" y="54.5" fill="#FFFFFF" width="15.8" height="15.8"/>
	<rect x="18.2" y="36.3" fill="#FFFFFF" width="15.8" height="15.8"/>
	<rect y="18.2" fill="#FFFFFF" width="15.8" height="15.8"/>
</g>
</svg>
